<svg viewBox="0 0 72 30" fill="none" xmlns="http://www.w3.org/2000/svg">
<path d="M24 5.12999C24 5.07535 24.0009 5.02808 24.0028 4.98819C24.0077 4.88083 24.0819 4.80938 24.1892 4.80337C24.2294 4.80111 24.2763 4.79999 24.33 4.79999C24.65 4.79999 24.92 4.80999 25.14 4.82999C25.38 4.82999 25.59 4.82999 25.77 4.82999C25.97 4.82999 26.18 4.82999 26.4 4.82999C26.62 4.82999 26.9 4.82999 27.24 4.82999C27.46 4.82999 27.57 4.93999 27.57 5.15999C27.57 5.67999 27.57 6.20999 27.57 6.74999C27.59 7.26999 27.61 7.78999 27.63 8.30999C27.63 8.64999 27.63 8.98999 27.63 9.32999C27.65 9.66999 27.66 10.01 27.66 10.35C27.68 10.87 27.69 11.38 27.69 11.88C27.71 12.38 27.74 12.89 27.78 13.41C27.8 14.01 27.81 14.61 27.81 15.21C27.83 15.79 27.83 16.38 27.81 16.98C27.81 17.16 27.81 17.38 27.81 17.64C27.81 17.9 27.81 18.18 27.81 18.48C27.81 18.76 27.81 19.04 27.81 19.32C27.81 19.6 27.8 19.84 27.78 20.04C27.78 20.16 27.77 20.31 27.75 20.49C27.75 20.65 27.75 20.82 27.75 21C27.7662 21.1455 27.7758 21.2779 27.7789 21.3972C27.7803 21.4523 27.7838 21.5075 27.7952 21.5614C27.8101 21.6322 27.8251 21.675 27.84 21.69C27.894 21.7439 27.9525 21.7843 28.0155 21.8109C28.0762 21.8366 28.1432 21.84 28.209 21.84C28.2912 21.84 28.3682 21.84 28.44 21.84C28.8 21.84 29.21 21.85 29.67 21.87C30.15 21.87 30.63 21.87 31.11 21.87C31.61 21.87 32.09 21.87 32.55 21.87C33.03 21.87 33.45 21.87 33.81 21.87H33.99C33.9921 21.8703 33.9942 21.8705 33.9963 21.8708C34.1799 21.8943 34.32 22.0449 34.32 22.23C34.32 22.55 34.32 22.81 34.32 23.01C34.34 23.21 34.36 23.4 34.38 23.58C34.4 23.74 34.41 23.92 34.41 24.12C34.43 24.32 34.45 24.58 34.47 24.9V25.32C34.47 25.46 34.45 25.55 34.41 25.59C34.3936 25.6064 34.337 25.6227 34.2403 25.6391C34.1936 25.647 34.1463 25.65 34.0989 25.65H32.58C31.5 25.65 30.42 25.65 29.34 25.65C28.28 25.65 27.21 25.64 26.13 25.62H24.4311C24.3837 25.62 24.3364 25.617 24.2897 25.6091C24.193 25.5927 24.1364 25.5764 24.12 25.56C24.1 25.54 24.09 25.47 24.09 25.35C24.07 25.09 24.06 24.84 24.06 24.6C24.06 24.36 24.06 24.11 24.06 23.85C24.04 22.73 24.02 21.62 24 20.52C24 19.42 24 18.3 24 17.16V5.12999Z" fill="#000000"/>
<path d="M41.6395 16.2432C41.5844 16.2432 41.5295 16.2479 41.4751 16.2566C41.3711 16.2732 41.3087 16.2816 41.288 16.2816C41.2624 16.2816 41.2496 16.3584 41.2496 16.512C41.3008 17.1264 41.3904 17.728 41.5184 18.3168C41.6464 18.9056 41.8768 19.4432 42.2096 19.9296C42.5424 20.3904 42.9904 20.7872 43.5536 21.12C44.1242 21.4425 44.8631 21.6688 45.7703 21.799C45.8284 21.8074 45.8872 21.8101 45.9458 21.807C46.5224 21.7768 47.0178 21.6886 47.432 21.5424C47.8928 21.3888 48.2896 21.1968 48.6224 20.9664C48.9808 20.7104 49.2624 20.4416 49.4672 20.16C49.6976 19.8784 49.8896 19.5968 50.0432 19.3152C50.1712 19.0336 50.248 18.8928 50.2736 18.8928C50.3248 18.8928 50.4784 18.9312 50.7344 19.008C50.9278 19.066 51.0628 19.1094 51.1393 19.1382C51.1771 19.1524 51.2433 19.1776 51.2816 19.1904C51.32 19.2032 51.3286 19.2091 51.3647 19.2271C51.3716 19.2306 51.3791 19.2343 51.3872 19.2384C51.4384 19.264 51.6048 19.3152 51.8864 19.392L53.6144 19.968C53.6305 19.9733 53.6456 19.9787 53.66 19.984C53.8047 20.0379 53.8638 20.2086 53.8064 20.352C53.1408 21.9392 52.2704 23.1552 51.1952 24C50.12 24.8192 48.968 25.3696 47.7392 25.6512C46.5104 25.9072 45.2816 25.9328 44.0528 25.728C42.824 25.5232 41.736 25.1648 40.7888 24.6528C39.3296 23.5776 38.2928 22.3488 37.6784 20.9664C37.0896 19.584 36.7568 18.048 36.68 16.3584C36.7568 15.0528 36.936 13.7856 37.2176 12.5568C37.4992 11.3024 37.9472 10.1888 38.5616 9.21599C39.176 8.24319 39.9952 7.44959 41.0192 6.83519C42.0688 6.19519 43.4 5.84959 45.0128 5.79839C46.0624 5.69599 47.048 5.84959 47.9696 6.25919C48.8912 6.64319 49.7104 7.18079 50.4272 7.87199C51.144 8.53759 51.7328 9.30559 52.1936 10.176C52.6544 11.0208 52.9488 11.84 53.0768 12.6336C53.1792 13.248 53.2304 13.8496 53.2304 14.4384C53.256 15.0272 53.2688 15.6032 53.2688 16.1664C53.2688 16.3456 53.192 16.4352 53.0384 16.4352C51.784 16.4352 50.8368 16.4224 50.1968 16.3968C49.5568 16.3712 48.968 16.3584 48.4304 16.3584C47.9952 16.3328 47.4448 16.32 46.7792 16.32C46.1136 16.2944 45.448 16.2816 44.7824 16.2816C44.1168 16.256 43.4896 16.2432 42.9008 16.2432C42.3629 16.2432 41.9424 16.2432 41.6395 16.2432Z" fill="#000000"/>
<path d="M70.9229 15.8829C70.912 15.9438 70.9089 16.006 70.8997 16.0671C70.8744 16.2357 70.7741 16.32 70.5989 16.32C70.2917 16.3456 69.9717 16.3712 69.6389 16.3968C69.3317 16.3968 69.0245 16.4096 68.7173 16.4352C68.1285 16.4864 67.5397 16.5248 66.9509 16.5504C66.3621 16.5504 65.7733 16.576 65.1845 16.6272C64.8261 16.6528 64.4037 16.6784 63.9173 16.704C63.4309 16.7296 62.9317 16.768 62.4197 16.8192C61.9333 16.8448 61.4469 16.8704 60.9605 16.896C60.4741 16.9216 60.0645 16.9472 59.7317 16.9728C59.5781 16.9728 59.4757 16.9984 59.4245 17.0496C59.4048 17.0694 59.3774 17.1349 59.3423 17.2463C59.3194 17.3194 59.307 17.3955 59.3051 17.4721C59.2813 18.4675 59.5899 19.2611 60.2309 19.8528C60.8965 20.4672 61.7285 20.8896 62.7269 21.12C63.7253 21.3248 64.7877 21.3248 65.9141 21.12C67.0405 20.9152 68.0261 20.5056 68.8709 19.8912C68.9733 19.8144 69.0629 19.8528 69.1397 20.0064C69.3445 20.416 69.5109 20.7616 69.6389 21.0432C69.7925 21.2992 69.9717 21.6448 70.1765 22.08C70.2789 22.2848 70.3813 22.5024 70.4837 22.7328C70.574 22.9133 70.6742 23.0938 70.7844 23.2744C70.814 23.323 70.8413 23.3734 70.8587 23.4276C70.8634 23.4425 70.8674 23.4564 70.8706 23.4692C70.8887 23.5413 70.8686 23.5772 70.8021 23.6104C70.7667 23.6281 70.6982 23.6662 70.6662 23.6896C70.1933 24.0354 69.6845 24.3693 69.1397 24.6912C68.5765 25.024 67.9237 25.3056 67.1813 25.536C66.4645 25.7664 65.6453 25.92 64.7237 25.9968C63.8021 26.0736 62.7269 26.0224 61.4981 25.8432C59.8853 25.3824 58.5669 24.5632 57.5429 23.3856C56.5189 22.208 55.7893 20.8896 55.3541 19.4304C54.9189 17.9456 54.7653 16.4096 54.8933 14.8224C55.0469 13.2096 55.4693 11.7504 56.1605 10.4448C56.8517 9.11359 57.8117 8.02559 59.0405 7.18079C60.2949 6.33599 61.8053 5.91359 63.5717 5.91359C64.9285 6.06719 66.1189 6.45119 67.1429 7.06559C68.1669 7.65439 68.9989 8.40959 69.6389 9.33119C70.2789 10.2528 70.7013 11.2896 70.9061 12.4416C71.1308 13.54 71.1364 14.6871 70.9229 15.8829Z" fill="#000000"/>
<path d="M11.1902 10.5634L14.426 1.62317C14.8721 0.390425 13.3139 -0.568866 12.4251 0.39136L0.3213 13.4674C-0.262658 14.0983 -0.017342 15.1238 0.788031 15.4186L7.29691 17.801C7.91808 18.0284 8.23837 18.7191 8.01228 19.3438L4.743 28.3766C4.28864 29.632 5.90254 30.5861 6.7724 29.5765L18.3072 16.1874C18.8565 15.5498 18.6002 14.5566 17.812 14.2681L11.9056 12.1062C11.2844 11.8789 10.9641 11.1881 11.1902 10.5634Z" fill="#000000"/>
</svg>
